<svg xmlns="http://www.w3.org/2000/svg" viewBox="0 0 70.31 100"><defs><style>.cls-1{fill:#fff;}</style></defs><title>Fichier 4</title><g id="Calque_2" data-name="Calque 2"><g id="Calque_1-2" data-name="Calque 1"><g id="Calque_2-2" data-name="Calque 2"><g id="Capa_1" data-name="Capa 1"><path class="cls-1" d="M39,29.91l9-7.48h0a.27.27,0,0,0,.08-.07l0,0,.1-.1v0l.07-.09,0,0,0-.08,0-.05,0-.07a.14.14,0,0,0,0-.06l0-.07a.14.14,0,0,1,0-.06.2.2,0,0,0,0-.07s0-.05,0-.07,0,0,0-.08v-.19h0v-.16a.5.5,0,0,0,0-.12V21s0-.06,0-.08a.25.25,0,0,1,0-.07l0-.06a.15.15,0,0,0,0-.07l0-.06a.16.16,0,0,1,0-.07l0,0-3.64-5.95a1.48,1.48,0,0,0-1.27-.7H26.91a1.49,1.49,0,0,0-1.26.71L22,20.51l0,0,0,.07,0,.05,0,.07,0,.07s0,0,0,.06a.31.31,0,0,1,0,.08.13.13,0,0,1,0,.06s0,.08,0,.12h0v.15h0v.19s0,.05,0,.07a.08.08,0,0,0,0,.07s0,.05,0,.07,0,0,0,.07l0,.06a.25.25,0,0,0,0,.07l0,.06L22,22l.05.07,0,0a.36.36,0,0,0,.07.1h0l.09.11h0l.08.08h0l9,7.48a35.21,35.21,0,1,0,7.7,0ZM36.63,28V22.77h6.3Zm5.08-11.19h.85l1.82,3H38.73Zm-4.2,0-2.35,2.36-2.37-2.36Zm-9.77,0h.85l3,3H25.92Zm-.37,5.94h6.29V28ZM35.16,97A32.18,32.18,0,1,1,67.33,64.84,32.22,32.22,0,0,1,35.16,97Z"/><path class="cls-1" d="M62.06,53.48A29.21,29.21,0,0,0,23.79,37.94a28.39,28.39,0,0,0-5,2.69A29.21,29.21,0,0,0,35.16,94.06h0A29.18,29.18,0,0,0,57.23,84a1.49,1.49,0,0,0-.15-2.09,1.42,1.42,0,0,0-1-.36A1.45,1.45,0,0,0,55,82h0a26.5,26.5,0,0,1-4,3.76,26.29,26.29,0,0,1-26.67,3l0,0h0A26.26,26.26,0,1,1,59,75.74c-.26.57-.54,1.14-.85,1.69a1.49,1.49,0,1,0,2.61,1.43h0a29,29,0,0,0,2.64-6.66,29.86,29.86,0,0,0,.92-7.36A29.19,29.19,0,0,0,62.06,53.48Z"/><path class="cls-1" d="M35.16,0a1.49,1.49,0,0,0-1.49,1.48h0V7.42a1.49,1.49,0,1,0,3,0h0V1.48A1.48,1.48,0,0,0,35.16,0Z"/><path class="cls-1" d="M24.55,9.87l-3-5.15A1.49,1.49,0,0,0,19,6.21h0l3,5.14a1.49,1.49,0,0,0,1.29.74A1.39,1.39,0,0,0,24,11.9a1.5,1.5,0,0,0,.55-2Z"/><path class="cls-1" d="M50.74,4.18a1.49,1.49,0,0,0-2,.54l-3,5.15a1.49,1.49,0,0,0,2.58,1.48l3-5.14A1.49,1.49,0,0,0,50.74,4.18Z"/></g></g></g></g></svg>