<svg xmlns="http://www.w3.org/2000/svg" viewBox="0 0 98.79 91.16"><defs><style>.cls-1{fill:#fff;}</style></defs><title>Fichier 3</title><g id="Calque_2" data-name="Calque 2"><g id="Calque_1-2" data-name="Calque 1"><g id="Calque_2-2" data-name="Calque 2"><g id="Capa_1" data-name="Capa 1"><path class="cls-1" d="M98.55,3.24H33.66a.25.25,0,0,0-.24.25V9.27a.25.25,0,0,0,.24.25H98.55a.25.25,0,0,0,.24-.25V3.49a.24.24,0,0,0-.23-.25Z"/><path class="cls-1" d="M33.66,20H66a.25.25,0,0,0,.25-.25V14A.25.25,0,0,0,66,13.7H33.66a.25.25,0,0,0-.24.25v5.78a.23.23,0,0,0,.23.25Z"/><path class="cls-1" d="M98.55,37.21H33.66a.25.25,0,0,0-.24.25v5.78a.25.25,0,0,0,.24.25H98.55a.25.25,0,0,0,.24-.25V37.46a.24.24,0,0,0-.23-.25Z"/><path class="cls-1" d="M33.66,54H66a.25.25,0,0,0,.25-.25V47.92a.25.25,0,0,0-.25-.25H33.66a.25.25,0,0,0-.24.25V53.7a.23.23,0,0,0,.23.25Z"/><path class="cls-1" d="M98.55,71.18H33.66a.25.25,0,0,0-.24.25v5.78a.25.25,0,0,0,.24.25H98.55a.25.25,0,0,0,.24-.25V71.43a.24.24,0,0,0-.23-.25Z"/><path class="cls-1" d="M66,81.66H33.66a.26.26,0,0,0-.24.25V87.7a.24.24,0,0,0,.24.24H66a.25.25,0,0,0,.25-.24V81.91A.28.28,0,0,0,66,81.66Z"/><polygon class="cls-1" points="10.65 12.39 5.44 7.14 0 12.55 5.21 17.79 10.63 23.22 16.06 17.83 28.49 5.44 23.1 0 10.65 12.39"/><polygon class="cls-1" points="10.65 46.36 5.44 41.11 0 46.52 5.21 51.76 10.63 57.19 16.06 51.8 28.49 39.41 23.1 33.97 10.65 46.36"/><polygon class="cls-1" points="10.65 80.33 5.44 75.08 0 80.5 5.21 85.73 10.63 91.16 16.06 85.75 28.49 73.38 23.1 67.94 10.65 80.33"/></g></g></g></g></svg>