<svg xmlns="http://www.w3.org/2000/svg" viewBox="0 0 99.36 78.88"><defs><style>.cls-1{fill:#fff;}</style></defs><title>Fichier 2</title><g id="Calque_2" data-name="Calque 2"><g id="Calque_1-2" data-name="Calque 1"><g id="Calque_2-2" data-name="Calque 2"><g id="Capa_1" data-name="Capa 1"><path class="cls-1" d="M91.68,10.24H82.31L76.61.75l0,0,0-.08,0-.06,0-.06,0-.06-.05,0L76.29.36l-.05,0-.07,0-.06,0-.06,0L76,.16l-.06,0-.08,0-.06,0-.09,0-.06,0-.08,0h-31l-.09,0H44.3l-.08,0h-.06l-.09,0,0,0-.08,0-.06,0-.07,0-.07,0-.06,0-.06,0,0,0-.06,0s0,0,0,.05l-.05,0,0,.07,0,.05-.06.08v0l-5.7,9.51h-14V5.63A1.54,1.54,0,0,0,22,4.09H9.73A1.53,1.53,0,0,0,8.2,5.63h0v4.61H7.68A7.69,7.69,0,0,0,0,17.93V71.19a7.7,7.7,0,0,0,7.68,7.69h84a7.7,7.7,0,0,0,7.68-7.69V17.93A7.69,7.69,0,0,0,91.68,10.24ZM11.27,7.18h9.22v3.06H11.27ZM91.68,75.8H23.56V17.93a1.54,1.54,0,1,0-3.07-.11v58H7.68a4.61,4.61,0,0,1-4.61-4.61V60.33H7.68a1.54,1.54,0,0,0,.11-3.07H3.07V52.19H7.68a1.54,1.54,0,0,0,.11-3.07H3.07V44.05H7.68a1.54,1.54,0,1,0,0-3.07H3.07V35.9H7.68a1.54,1.54,0,1,0,.11-3.07H3.07V17.93a4.62,4.62,0,0,1,4.61-4.61h31l.14,0h0l.13,0h0l.16-.08h0l.13-.08,0,0,.09-.08,0,0,.12-.13,0,0c0-.05.07-.09.09-.13l0,0,5.69-9.5h29l5.7,9.5v0l.09.13,0,0,.12.13,0,0,.09.08,0,0,.12.08h0l.16.08h0l.14,0h0l.13,0H91.68a4.6,4.6,0,0,1,4.61,4.61V71.19h0A4.6,4.6,0,0,1,91.68,75.8Z"/><path class="cls-1" d="M59.92,24.58a21,21,0,1,0,21,21A21,21,0,0,0,59.92,24.58Zm0,38.93A17.93,17.93,0,1,1,77.85,45.58h0A18,18,0,0,1,59.92,63.51Z"/><path class="cls-1" d="M68.65,38.44a7,7,0,0,0-8.74-.89,6.94,6.94,0,0,0-8.72,10.7l7.65,7.64a1.53,1.53,0,0,0,2.17,0l7.64-7.63a7,7,0,0,0,0-9.82Zm-2.18,7.64-6.55,6.55-6.55-6.55a3.86,3.86,0,1,1,5.46-5.46,1.55,1.55,0,0,0,2.18,0A3.86,3.86,0,1,1,66.54,46l-.07.06Z"/><path class="cls-1" d="M74.67,11.21,73,7.11h0L73,7l0,0,0-.07,0-.06,0,0-.06-.07v0l-.19-.19,0,0-.1-.07-.11-.07h0l-.26-.11h0l-.09,0h0a.1.1,0,0,1-.07,0H47.93l-.06,0-.09,0h0l-.11,0h0l-.12.06,0,0-.09,0-.11.08h0a1.26,1.26,0,0,0-.2.2h0L47,6.8l0,0a.21.21,0,0,1,0,.06l0,.08,0,0a.47.47,0,0,0-.05.1h0l-1.64,4.1a1.53,1.53,0,0,0,.86,2h0a1.38,1.38,0,0,0,.57.11,1.54,1.54,0,0,0,1.43-1l1.24-3.13H70.56l1.26,3.13a1.52,1.52,0,0,0,1.42,1,1.56,1.56,0,0,0,.57-.11,1.53,1.53,0,0,0,.86-2Z"/><path class="cls-1" d="M88.61,16.39A4.61,4.61,0,1,0,93.22,21,4.6,4.6,0,0,0,88.61,16.39Zm0,6.15A1.54,1.54,0,1,1,90.15,21,1.54,1.54,0,0,1,88.61,22.54Z"/><path class="cls-1" d="M86.25,39a27.15,27.15,0,1,0,0,13.23,6.65,6.65,0,0,0,0-13.23ZM59.92,69.66a24.07,24.07,0,1,1,23.56-29v0a1.14,1.14,0,0,0,.07.33,24.08,24.08,0,0,1-19,28.24,23.6,23.6,0,0,1-4.6.45Zm27-20.75a28.6,28.6,0,0,0,.19-3.33,28.31,28.31,0,0,0-.2-3.32,3.59,3.59,0,0,1,0,6.65Z"/><path class="cls-1" d="M34.32,20.49H28.17a1.54,1.54,0,1,0-.11,3.07h6.26a1.54,1.54,0,0,0,0-3.07Z"/></g></g></g></g></svg>