<svg xmlns="http://www.w3.org/2000/svg" viewBox="0 0 64.99 99.77"><defs><style>.cls-1{fill:#fff;}</style></defs><title>Fichier 1</title><g id="Calque_2" data-name="Calque 2"><g id="Calque_1-2" data-name="Calque 1"><g id="Calque_2-2" data-name="Calque 2"><g id="Capa_1" data-name="Capa 1"><path class="cls-1" d="M51.11,26.67a8.25,8.25,0,0,0,1.22-.1,7.64,7.64,0,0,0,5-3.08l7.34-10.11a1.47,1.47,0,0,0-.33-2.05,1.49,1.49,0,0,0-.62-.26,49.13,49.13,0,0,0-6.52-.53,47,47,0,0,0-2.53-6,1.47,1.47,0,0,0-2-.63,1.59,1.59,0,0,0-.52.44L44.89,14.42a7.69,7.69,0,0,0,.53,9.71c-1.11,1.33-3.07,3.73-5.22,6.72V29.57a1.46,1.46,0,0,0-2.92,0v5.59C36.11,37,35,38.93,34,40.9V32.7h0V30.18l4.25-4.25a1.46,1.46,0,0,0-2.06-2.07L34,26.05V21.53A7.72,7.72,0,0,0,40.2,14V1.46A1.46,1.46,0,0,0,38.74,0a1.47,1.47,0,0,0-.65.15,49.21,49.21,0,0,0-5.6,3.41A47.51,47.51,0,0,0,26.89.15a1.48,1.48,0,0,0-2,.67,1.58,1.58,0,0,0-.15.64V14A7.74,7.74,0,0,0,31,21.53v7.65l-3.75-3.76a1.46,1.46,0,0,0-2.06,2.07L31,33.31v7.6A97.65,97.65,0,0,0,19.57,24.14a7.71,7.71,0,0,0,.53-9.72L12.76,4.31a1.48,1.48,0,0,0-2-.32,1.5,1.5,0,0,0-.43.51,47,47,0,0,0-2.54,6,49.41,49.41,0,0,0-6.53.53A1.47,1.47,0,0,0,0,12.77a1.57,1.57,0,0,0,.26.61L7.62,23.49a7.72,7.72,0,0,0,9.6,2.41c.45.53,1.08,1.29,1.82,2.22H17.75a1.46,1.46,0,0,0,0,2.92h3.53a86.34,86.34,0,0,1,6.63,10.21A48.35,48.35,0,0,0,20,35,48.2,48.2,0,0,0,3,28.13a1.47,1.47,0,0,0-1.66,1.24,1.49,1.49,0,0,0,0,.21A43.93,43.93,0,0,0,4.17,43.16a59.5,59.5,0,0,0,19,26.17v5.36L17,97.93a1.46,1.46,0,0,0,1,1.79,1.18,1.18,0,0,0,.37,0H46.55A1.46,1.46,0,0,0,48,98.31a1.64,1.64,0,0,0,0-.38l-6.2-23.24V69.33a59.38,59.38,0,0,0,19-26.17,43.93,43.93,0,0,0,2.82-13.58,1.46,1.46,0,0,0-1.46-1.46H62a44.52,44.52,0,0,0-10.89,3.55,49.63,49.63,0,0,0-14,9.6A86,86,0,0,1,43.71,31h3.53a1.46,1.46,0,1,0,0-2.92H46c.74-.93,1.37-1.69,1.82-2.22A7.71,7.71,0,0,0,51.11,26.67Zm9.77-13-2.2,3a23.66,23.66,0,0,0-.59-3.22C59.13,13.52,60.09,13.59,60.88,13.67Zm-54.57,3-2.21-3c.8-.07,1.76-.14,2.79-.17A23.22,23.22,0,0,0,6.31,16.7Zm10.36,6.13A4.78,4.78,0,0,1,10,21.77h0c-2.1-2.89.13-9.71,1.86-13.73l5.88,8.1A4.79,4.79,0,0,1,16.67,22.83ZM37.28,3.94V7.69a24,24,0,0,0-2.36-2.26C35.78,4.86,36.59,4.35,37.28,3.94ZM27.71,14v-10c3.77,2.24,9.57,6.45,9.57,10a4.79,4.79,0,0,1-9.57,0ZM7,42.29A46.41,46.41,0,0,1,4.4,31.4a47.88,47.88,0,0,1,14,6A44.25,44.25,0,0,1,30.62,48.87a48.06,48.06,0,0,1,7.9,18.29h-3.4A43.06,43.06,0,0,0,24.17,46.4a1.46,1.46,0,1,0-2.11,2h0a40.06,40.06,0,0,1,10,18.73H25.2A56.54,56.54,0,0,1,7,42.29Zm31.87,27.8v3.33H26.14V70.09Zm5.81,26.76H38.46L38.21,95a1.46,1.46,0,0,0-2.9.39h0l.2,1.47H20.34l5.47-20.51h7l1.71,12.79a1.47,1.47,0,0,0,1.45,1.27h.19a1.47,1.47,0,0,0,1.26-1.65l-1.65-12.4h3.45ZM52.2,34.37a46.73,46.73,0,0,1,8.39-3A46.8,46.8,0,0,1,58,42.29,56.33,56.33,0,0,1,41.26,66a51.56,51.56,0,0,0-7-16.94A45.66,45.66,0,0,1,52.2,34.37Zm-5-18.23L53.14,8c1.74,4,4,10.85,1.86,13.74a4.79,4.79,0,0,1-7.75-5.63Z"/><path class="cls-1" d="M19.32,42.13c-1-.78-2.12-1.52-3.23-2.21a1.46,1.46,0,0,0-1.57,2.47h0c1,.64,2.05,1.34,3,2.06a1.46,1.46,0,0,0,1.75-2.34Z"/></g></g></g></g></svg>